<svg width="672" height="274" viewBox="0 0 672 274" fill="none" xmlns="http://www.w3.org/2000/svg">
<path d="M291.867 3.0316C277.867 10.4983 275.6 31.2983 287.733 41.5649C293.6 46.4983 300.267 48.3649 307.733 47.2983C315.733 46.0983 325.867 36.6316 327.333 28.8983C329.467 18.0983 324.4 7.8316 314.667 2.89827C307.067 -0.968397 299.333 -0.835064 291.867 3.0316Z" fill="white"/>
<path d="M636.267 2.76487C625.734 8.0982 621.067 19.1649 624.534 31.1649C626.8 38.8982 630.267 42.8982 637.6 45.9649C644.134 48.6315 650.134 48.4982 656.667 45.4315C666.534 40.8982 672.934 30.3649 671.334 21.4315C668 3.83153 651.734 -4.83513 636.267 2.76487Z" fill="white"/>
<path d="M0 30.7649V53.2982H25.3333H50.6667V127.298V201.298H74H97.3333V127.298V53.2982H122.667H148L148.267 44.2315C148.267 39.2982 148.533 29.2982 148.533 21.9649L148.667 8.63154L74.4 8.36488L0 8.09821V30.7649Z" fill="white"/>
<path d="M481.2 8.89823C481.2 9.5649 481.2 23.2982 481.2 39.5649C481.334 55.9649 480.934 69.2982 480.667 69.2982C480.267 69.2982 477.734 67.8316 474.934 65.9649C466.4 60.3649 458.8 58.2316 446.667 58.2316C427.067 58.2316 415.867 64.6316 406.8 81.2982L402.667 88.6316V74.2316V59.9649H382H361.333V166.632C361.333 225.298 361.6 273.298 361.867 273.298C362.533 273.298 397.067 258.632 403.067 255.965L406.667 254.232V226.365C406.667 211.165 406.8 198.632 407.067 198.632C407.2 198.632 411.067 199.965 415.333 201.432C426.667 205.565 443.067 206.232 454.267 203.298C462.534 201.032 478.667 191.698 478.667 189.165C478.667 188.498 479.334 187.965 480 187.965C480.8 187.965 481.334 190.898 481.334 194.632V201.298H502.667H524V169.298V137.298H547.334C560.134 137.298 570.667 136.898 570.667 136.232C570.8 135.698 570.934 125.565 571.067 113.565L571.334 91.9649H549.734C537.867 91.9649 527.334 91.5649 526.134 91.1649C524.267 90.4982 524 87.4316 524 71.8316V53.2982L559.067 53.0316L594 52.6316V30.6316V8.63157L537.734 8.23157C506.667 8.09823 481.334 8.3649 481.2 8.89823ZM450.8 104.765C465.6 114.765 468.534 140.365 456.4 154.765C448.134 164.632 431.467 167.432 419.333 161.165C409.067 155.965 407.467 152.632 406.933 137.032C406.267 120.098 407.2 115.698 412.4 109.698C418.8 102.365 425.6 99.6982 436.133 100.365C443.2 100.765 446.267 101.698 450.8 104.765Z" fill="white"/>
<path d="M148 130.232V201.298H170.533H193.067L193.6 164.232C194.133 124.232 194.4 122.498 202.133 112.365C210.8 101.032 230.4 97.1649 243.2 104.365C246.8 106.365 249.867 107.965 250.133 107.965C250.4 107.965 250.667 96.7649 250.667 83.1649V58.3649L236.4 58.8982C224.4 59.2982 220.933 59.9649 215.467 62.6315C208.267 66.3649 198.933 76.0982 195.2 84.0982C193.733 86.8982 192.267 89.2982 191.733 89.2982C191.067 89.2982 190.667 82.7649 190.667 74.6315V60.0982L169.333 59.6982L148 59.2982V130.232Z" fill="white"/>
<path d="M281.333 130.632V201.298H304.667H328V130.632V59.9649H304.667H281.333V130.632Z" fill="white"/>
<path d="M624 130.632V201.298H647.333H670.667V130.632V59.9649H647.333H624V130.632Z" fill="white"/>
</svg>
